<svg width="73" height="30" viewBox="0 0 73 30" fill="none" xmlns="http://www.w3.org/2000/svg">
<path d="M26.179 10.5824H19.9574C19.8438 9.77746 19.6117 9.0625 19.2614 8.4375C18.911 7.80303 18.4612 7.26326 17.9119 6.81818C17.3627 6.37311 16.7282 6.0322 16.0085 5.79545C15.2983 5.55871 14.5265 5.44034 13.6932 5.44034C12.1875 5.44034 10.8759 5.81439 9.75852 6.5625C8.6411 7.30114 7.77462 8.38068 7.15909 9.80114C6.54356 11.2121 6.2358 12.9261 6.2358 14.9432C6.2358 17.017 6.54356 18.7595 7.15909 20.1705C7.78409 21.5814 8.6553 22.6468 9.77273 23.3665C10.8902 24.0862 12.1828 24.446 13.6506 24.446C14.4744 24.446 15.2367 24.3371 15.9375 24.1193C16.6477 23.9015 17.2775 23.5843 17.8267 23.1676C18.3759 22.7415 18.8305 22.2254 19.1903 21.6193C19.5597 21.0133 19.8153 20.322 19.9574 19.5455L26.179 19.5739C26.018 20.9091 25.6155 22.197 24.9716 23.4375C24.3371 24.6686 23.4801 25.7718 22.4006 26.7472C21.3305 27.7131 20.0521 28.4801 18.5653 29.0483C17.0881 29.607 15.4167 29.8864 13.5511 29.8864C10.9564 29.8864 8.63636 29.2992 6.59091 28.125C4.55492 26.9508 2.94508 25.2509 1.76136 23.0256C0.587121 20.8002 0 18.1061 0 14.9432C0 11.7708 0.596591 9.07197 1.78977 6.84659C2.98295 4.62121 4.60227 2.92614 6.64773 1.76136C8.69318 0.587122 10.9943 0 13.5511 0C15.2367 0 16.7992 0.236742 18.2386 0.710227C19.6875 1.18371 20.9706 1.875 22.0881 2.78409C23.2055 3.68371 24.1146 4.78693 24.8153 6.09375C25.5256 7.40057 25.9801 8.89678 26.179 10.5824Z" fill="black"/>
<path d="M24.3895 29.4886V0.397727H30.5401V12.4006H43.0259V0.397727H49.1622V29.4886H43.0259V17.4716H30.5401V29.4886H24.3895Z" fill="black"/>
<path d="M53.8003 0.397727L59.6668 10.3125H59.894L65.7889 0.397727H72.7349L63.8571 14.9432L72.9338 29.4886H65.8599L59.894 19.5597H59.6668L53.7009 29.4886H46.6554L55.7605 14.9432L46.8259 0.397727H53.8003Z" fill="black"/>
</svg>
